<?xml version="1.0" encoding="utf-8"?><svg viewBox="0 0 26 42" xmlns="http://www.w3.org/2000/svg" xmlns:xlink="http://www.w3.org/1999/xlink"><style>:root>svg{display:none}:root>svg:target{display:block}</style><svg fill="none" viewBox="0 0 19 19" id="Instagram" xmlns="http://www.w3.org/2000/svg"><path fill-rule="evenodd" clip-rule="evenodd" d="M4.936.036C3.08.243 1.43 1.406.577 3.11A5.668 5.668 0 0 0 .04 4.977c-.053.492-.053 8.548 0 9.04a5.559 5.559 0 0 0 4.94 4.943c.493.053 8.547.053 9.04 0a5.463 5.463 0 0 0 3.305-1.568 5.488 5.488 0 0 0 1.635-3.374c.053-.493.053-8.549 0-9.041a5.466 5.466 0 0 0-1.567-3.307A5.485 5.485 0 0 0 14.019.035c-.433-.047-8.66-.046-9.083.001Zm9.424.79c.754.18 1.365.453 1.934.863.756.545 1.434 1.484 1.715 2.375.242.767.23.467.23 5.433 0 4.209-.005 4.53-.068 4.82-.099.46-.238.877-.405 1.212-.695 1.394-1.883 2.305-3.447 2.642-.29.063-.612.067-4.819.067s-4.53-.004-4.82-.067c-1.034-.223-1.897-.69-2.576-1.397C1.457 16.102 1.04 15.3.83 14.318c-.063-.29-.067-.612-.067-4.82 0-4.21.004-4.531.067-4.821.211-.982.628-1.784 1.275-2.457A4.914 4.914 0 0 1 4.96.78C5.1.76 7.19.75 9.648.752c4.117.007 4.454.012 4.712.074Zm-9.43.858A3.896 3.896 0 0 0 2.866 2.72 3.888 3.888 0 0 0 1.688 4.95c-.08.496-.08 8.596 0 9.093a3.938 3.938 0 0 0 2.603 3.101c.57.194.856.22 2.323.22H7.94l.12-.107c.163-.145.17-.362.02-.514l-.103-.102-1.474-.02-1.474-.021-.334-.102c-1.08-.33-1.857-1.106-2.196-2.195l-.105-.334V5.025L2.5 4.69c.339-1.088 1.108-1.858 2.196-2.197l.334-.105h8.942l.334.105c1.088.34 1.857 1.109 2.197 2.197l.104.334v8.945l-.105.334c-.34 1.088-1.115 1.864-2.196 2.195l-.334.102-1.391.012c-.765.006-1.43.02-1.478.031a.431.431 0 0 0-.177.116c-.16.173-.1.451.122.564.13.067 2.577.056 2.998-.013a3.935 3.935 0 0 0 3.267-3.267c.08-.497.08-8.597 0-9.094a3.935 3.935 0 0 0-3.267-3.267c-.462-.075-8.668-.074-9.116.001Zm8.997 1.608c-.987.35-1.278 1.59-.545 2.322.692.692 1.847.477 2.273-.422.084-.176.097-.254.097-.557 0-.317-.011-.377-.115-.594a1.373 1.373 0 0 0-1.22-.807 1.236 1.236 0 0 0-.49.058Zm.704.726c.592.253.49 1.134-.146 1.265-.408.084-.856-.364-.772-.772a.76.76 0 0 1 .342-.467.73.73 0 0 1 .576-.026Zm-5.576.383c-.73.058-1.92.454-2.041.68a.366.366 0 0 0 .071.453c.15.133.239.13.608-.022.729-.299 1.075-.37 1.807-.373.541-.002.923.052 1.332.188a4.432 4.432 0 0 1 2.96 3.317c.091.43.092 1.274 0 1.703-.375 1.757-1.685 3.069-3.439 3.443-.433.092-1.273.092-1.706 0a4.432 4.432 0 0 1-3.316-2.96c-.137-.411-.19-.79-.188-1.333.003-.763.107-1.205.471-2.017.11-.241.126-.31.098-.407a.348.348 0 0 0-.316-.273c-.202-.027-.3.062-.49.444-.964 1.949-.565 4.322.99 5.87a5.082 5.082 0 0 0 7.208 0 5.089 5.089 0 0 0 0-7.233 5.078 5.078 0 0 0-4.05-1.48ZM6.06 5.72a.4.4 0 0 0-.141.166c-.142.299.127.6.443.495.374-.123.302-.71-.086-.703a.632.632 0 0 0-.216.042Zm2.836.494a3.381 3.381 0 0 0-2.385 1.818c-.258.528-.325.83-.325 1.466 0 .438.015.594.08.835.254.93.916 1.737 1.768 2.155.528.258.83.325 1.466.325s.938-.067 1.466-.325a3.434 3.434 0 0 0 1.767-2.155c.066-.241.081-.397.081-.835 0-.636-.067-.938-.325-1.466a3.418 3.418 0 0 0-2.154-1.764c-.393-.103-1.05-.128-1.439-.054Zm1.116.744c.162.033.438.131.638.227.3.144.4.218.674.494.268.27.35.382.49.672.374.778.374 1.517 0 2.294-.14.29-.222.403-.49.673-.273.275-.374.35-.674.493-.783.377-1.517.377-2.3 0-.3-.144-.4-.218-.674-.493-.268-.27-.35-.382-.49-.673a2.718 2.718 0 0 1-.283-1.147c0-.36.1-.767.284-1.147.14-.29.221-.402.489-.672.273-.276.374-.35.674-.494.568-.273 1.085-.344 1.662-.227Zm-.642 9.7a.362.362 0 0 0-.12.587.303.303 0 0 0 .25.102c.431 0 .482-.631.056-.702a.4.4 0 0 0-.186.013Z" fill="#fff"/></svg><svg fill="none" viewBox="0 0 19 19" id="LinkedIn" xmlns="http://www.w3.org/2000/svg"><path fill-rule="evenodd" clip-rule="evenodd" d="M.751.07a1.078 1.078 0 0 0-.719.8c-.029.135-.037 2.633-.03 8.742l.012 8.553.078.169c.115.247.29.427.529.544l.21.103 6.707.01c5.005.008 6.733 0 6.81-.033a.397.397 0 0 0 .212-.33.405.405 0 0 0-.203-.326c-.075-.034-1.663-.044-6.711-.044-7.193 0-6.764.013-6.863-.203C.72 17.914.72 1.088.783.947.86.781.987.744 1.478.744c.492 0 .612-.033.694-.19.1-.193.03-.425-.15-.508C1.862-.026.984-.01.752.071ZM3.158.055c-.322.178-.187.69.182.69.188 0 .371-.181.371-.367a.374.374 0 0 0-.553-.323Zm1.486 0c-.249.138-.24.53.013.646.075.034 1.662.044 6.708.044 5.045 0 6.633.01 6.707.044.217.1.204-.496.204 8.713s.013 8.614-.204 8.713c-.058.026-.277.044-.543.044-.491 0-.62.037-.695.203a.353.353 0 0 0 .01.35c.087.169.214.198.807.183.493-.012.547-.02.743-.116.239-.117.413-.297.528-.544l.078-.169V.837l-.104-.211a1.099 1.099 0 0 0-.544-.527l-.17-.079-6.724-.008c-5.54-.006-6.74 0-6.814.041ZM4.166 2.69a1.992 1.992 0 0 0-1.473 1.391c-.077.262-.077.782 0 1.044.315 1.072 1.457 1.687 2.48 1.335.34-.116.519-.228.772-.48.62-.62.759-1.492.362-2.277-.137-.271-.532-.683-.774-.806-.445-.227-.945-.302-1.367-.207Zm.946.838c.252.124.445.32.577.59.118.24.117.726-.003.972-.135.276-.32.463-.59.596a1.165 1.165 0 0 1-1.38-.237c-.227-.23-.317-.44-.333-.78-.017-.338.046-.556.225-.79a1.185 1.185 0 0 1 1.504-.35Zm6.996 3.282c-.527.118-.924.282-1.31.543-.117.08-.221.144-.232.144-.01 0-.019-.051-.019-.115 0-.16-.098-.35-.207-.4-.123-.055-2.849-.059-2.953-.003-.19.102-.183-.085-.183 4.69v4.436l.108.12.108.122 1.47.01c1.589.012 1.629.008 1.74-.187.037-.064.052-.69.066-2.81l.019-2.727.11-.198c.13-.236.265-.357.536-.481.527-.242 1.162-.01 1.446.528l.1.188.018 2.736.019 2.735.103.103.103.103 1.466.01c1.584.012 1.625.008 1.736-.187.037-.065.047-.725.047-3.144 0-2.826-.005-3.085-.068-3.376a3.647 3.647 0 0 0-2.57-2.767c-.42-.124-1.258-.161-1.653-.073Zm-9.149.239-.121.108v4.465c0 3.56.01 4.482.048 4.548.11.194.15.199 1.739.187l1.47-.01.108-.121.109-.121v-4.436c0-4.775.007-4.588-.184-4.69-.045-.025-.61-.038-1.56-.038H3.082l-.122.108Zm10.69.576c.777.263 1.348.752 1.693 1.45.303.61.296.517.296 3.716v2.832h-1.97v-2.42c0-2.659-.003-2.692-.225-3.107a1.953 1.953 0 0 0-1.075-.895c-.33-.104-.829-.103-1.13.002-.6.207-1.02.629-1.22 1.223-.08.24-.081.286-.094 2.72l-.013 2.477H7.947v-7.94H9.804v.428c0 .502.042.619.24.685a.424.424 0 0 0 .212.017c.045-.014.25-.195.456-.403.383-.385.625-.553 1.028-.716.387-.156.642-.197 1.148-.183.386.01.515.03.762.114Zm-8.08 4.028v3.97H3.6v-7.94H5.569v3.97Zm9.924 6.657c-.322.178-.187.69.182.69.188 0 .371-.181.371-.367a.374.374 0 0 0-.553-.323Z" fill="#fff"/></svg><svg fill="none" viewBox="0 0 19 19" id="Telegram" xmlns="http://www.w3.org/2000/svg"><path fill-rule="evenodd" clip-rule="evenodd" d="M17.808.072C17.17.312.416 7.73.329 7.81c-.487.447-.423 1.333.12 1.65.076.045 1.038.465 2.138.933 1.099.468 2.003.856 2.009.863.005.006.363 1.309.795 2.894.431 1.585.815 2.95.852 3.033.215.484.722.682 1.135.443.1-.058.719-.605 1.373-1.214.655-.61 1.23-1.126 1.28-1.147.065-.029.125-.019.223.037.074.042 1.046.833 2.16 1.756 1.116.924 2.097 1.732 2.182 1.796a.85.85 0 0 0 .705.114c.198-.06.473-.339.549-.554.033-.093.763-4.033 1.624-8.755C19.206.157 19.106.816 18.87.425c-.237-.393-.62-.52-1.063-.353Zm.437.916c.014.165-3.06 17.029-3.117 17.108-.025.034-.057.061-.072.061-.015 0-1.018-.821-2.23-1.825-2.39-1.98-2.402-1.988-2.81-1.94a1.172 1.172 0 0 0-.356.112c-.09.05-.717.606-1.392 1.235a55.781 55.781 0 0 1-1.246 1.144c-.08-.002-.204-.413-.925-3.057a202.89 202.89 0 0 0-.859-3.1.415.415 0 0 0-.112-.156c-.037-.027-1.02-.453-2.182-.947C1.781 9.129.81 8.694.784 8.657c-.039-.055-.037-.08.01-.133C.862 8.446 18.098.841 18.179.853c.033.005.06.06.066.135ZM14.347 3.8c-.377.222-7.923 5.56-8.044 5.691a1.38 1.38 0 0 0-.35.855c-.017.255.017.418.44 2.12.49 1.972.516 2.043.779 2.167.149.07.412.033.549-.078.179-.146.227-.33.346-1.332.145-1.227.172-1.33.416-1.62.107-.126 1.622-1.742 3.367-3.59 1.745-1.85 3.188-3.409 3.207-3.467.175-.525-.277-1-.71-.746ZM12.47 6.182c-.061.068-1.09 1.158-2.287 2.423-1.196 1.264-2.249 2.398-2.34 2.52-.252.34-.364.664-.44 1.28-.035.292-.074.531-.085.531-.011 0-.16-.554-.328-1.232-.33-1.318-.337-1.393-.168-1.574.079-.084 5.69-4.06 5.74-4.068.01 0-.031.053-.092.12Zm3.118 3.247c-.121.117-.198.365-.198.643 0 .345.401.543.612.302.18-.205.227-.71.085-.897a.327.327 0 0 0-.499-.048Zm-.398 2.032c-.116.135-.13.195-.554 2.43-.24 1.261-.436 2.365-.436 2.455 0 .359.388.55.607.3a.604.604 0 0 0 .115-.18c.01-.039.213-1.103.453-2.365.479-2.527.48-2.544.264-2.695-.177-.123-.31-.106-.45.055Z" fill="#fff"/></svg><svg fill="none" viewBox="0 0 21 19" id="Twitter" xmlns="http://www.w3.org/2000/svg"><path fill-rule="evenodd" clip-rule="evenodd" d="M13.83.043c-.973.122-1.987.683-2.7 1.495-.376.426-.568.73-.817 1.287-.314.705-.43 1.232-.458 2.077l-.023.67-.23-.029a24.826 24.826 0 0 1-1.546-.31c-.396-.095-.591.036-.603.404-.01.272.147.394.692.537.642.17 1.478.302 1.974.313.428.01.43.01.534-.123.094-.12.101-.157.078-.408-.062-.68-.072-1.246-.027-1.567a4.43 4.43 0 0 1 .925-2.118c.806-.973 2.042-1.492 3.17-1.33.844.12 1.456.426 2.092 1.045.158.153.33.302.38.329.13.069.532-.022 1.243-.28.316-.115.576-.196.576-.18 0 .07-.509.63-.74.812-.427.337-.489.405-.516.563-.03.173.06.404.185.478.122.072.391.055.896-.058l.463-.103-.175.199c-.096.11-.355.361-.575.559-.22.198-.419.398-.442.446-.023.047-.042.337-.042.644-.007 5.662-3.216 10.59-7.92 12.164-1.652.553-3.46.693-5.216.405-.817-.133-2.024-.512-2.66-.833l-.25-.126.246-.032a8.507 8.507 0 0 0 3.862-1.545c.646-.475.72-.556.72-.792 0-.148-.026-.218-.116-.318-.097-.107-.162-.133-.4-.157-.718-.073-1.465-.364-1.968-.766a4.6 4.6 0 0 1-.935-1.072l-.206-.34.426-.029c.888-.059 1.197-.21 1.197-.583 0-.274-.11-.366-.675-.564-.646-.226-1.058-.507-1.535-1.046A4.037 4.037 0 0 1 1.9 8.424c-.101-.272-.246-.818-.223-.843.006-.006.176.04.38.1.203.06.549.123.767.139l.398.028.126-.14a.402.402 0 0 0 .126-.33c0-.207-.008-.217-.493-.641-.517-.453-1.007-1.304-1.2-2.084-.08-.318-.094-.488-.093-1.08 0-.6.014-.757.097-1.078l.097-.376.457.491c.529.568 1.05 1.054 1.545 1.439.43.333.595.359.786.123.236-.29.15-.501-.378-.92-.66-.523-1.327-1.196-2.01-2.025-.288-.35-.318-.374-.472-.373a.44.44 0 0 0-.253.08c-.1.088-.355.632-.474 1.007-.315.999-.318 2.318-.008 3.272.13.395.35.892.517 1.16.066.106.109.192.095.192-.013 0-.096-.04-.185-.09-.237-.134-.432-.12-.578.041-.11.121-.12.16-.12.446 0 .697.215 1.606.54 2.278.245.504.53.905.971 1.36.355.368.383.408.282.408-.132 0-.3.167-.338.338-.054.237.339 1.18.717 1.725.544.78 1.375 1.449 2.142 1.722.124.044.242.09.26.102.114.072-1.156.687-1.854.898-.835.253-1.261.31-2.36.312-.958.003-.976.005-1.068.106-.11.12-.13.447-.037.57.032.043.254.207.493.365 1.449.96 3.084 1.558 4.915 1.8.539.071 2.15.072 2.671.001 2.097-.283 3.758-.926 5.309-2.053 3.294-2.394 5.351-6.503 5.507-10.997l.025-.737.141-.119c.479-.402 1.183-1.22 1.637-1.898.208-.311.243-.391.243-.56 0-.16-.021-.217-.115-.306-.16-.152-.339-.14-.777.053-.202.09-.374.156-.382.147-.008-.008.061-.138.153-.287.252-.408.536-1.096.558-1.35.017-.193.006-.234-.096-.352-.171-.197-.35-.181-.769.067-.51.303-.942.5-1.5.686l-.506.168-.193-.18C16.658.566 15.789.152 14.884.04a3.377 3.377 0 0 0-1.054.003ZM5.91 4.468c-.138.027-.299.266-.299.443 0 .109.036.19.127.29.373.413.944-.157.582-.58-.116-.136-.249-.186-.41-.153Zm9.067 6.627a.393.393 0 0 0-.12.294c0 .384.437.592.68.324.237-.261.048-.75-.29-.75-.11 0-.18.034-.27.132Zm-.798 1.266c-.068.045-.19.173-.273.283-.454.607-1.245 1.363-1.971 1.883-.53.38-.57.426-.57.655 0 .245.173.45.38.45.315 0 1.454-.903 2.275-1.806.824-.903.924-1.13.631-1.424-.145-.146-.297-.16-.472-.041Z" fill="#fff"/></svg><svg fill="none" viewBox="0 0 17 14" id="down-arrow" xmlns="http://www.w3.org/2000/svg"><path d="m1 1.5 7.273 10L16 1.5" stroke="#fff" stroke-width="2"/></svg><svg fill="none" viewBox="0 0 21 24" id="right-arrow" xmlns="http://www.w3.org/2000/svg"><path fill-rule="evenodd" clip-rule="evenodd" d="m8.777 2.278.068.955 4.075-.42 4.075-.42-8.438 10.055L.12 22.504l.739.62.738.62 8.438-10.056 8.438-10.055.294 4.086.293 4.087.953-.1.953-.1-.412-5.731-.412-5.732-5.717.59-5.717.59.069.955Z" fill="#fff"/></svg><svg fill="none" viewBox="0 0 26 42" id="swiper-arrow-left" xmlns="http://www.w3.org/2000/svg"><path d="M1 21 25 2v38L1 21Z" fill="url(#ga)" stroke="#fff"/><defs><linearGradient id="ga" x1="25" y1="33.757" x2="12.601" y2="1.36" gradientUnits="userSpaceOnUse"><stop stop-color="#54D6FF"/><stop offset=".547" stop-color="#C275FF"/><stop offset="1" stop-color="#F36AFF"/></linearGradient></defs></svg><svg fill="none" viewBox="0 0 26 42" id="swiper-arrow-right" xmlns="http://www.w3.org/2000/svg"><path d="M25 21 1 2v38l24-19Z" fill="url(#ha)" stroke="#fff"/><defs><linearGradient id="ha" x1="1" y1="33.757" x2="13.399" y2="1.36" gradientUnits="userSpaceOnUse"><stop stop-color="#54D6FF"/><stop offset=".547" stop-color="#C275FF"/><stop offset="1" stop-color="#F36AFF"/></linearGradient></defs></svg><svg fill="none" viewBox="0 0 17 12" id="up-arrow" xmlns="http://www.w3.org/2000/svg"><path d="m1 11 7.273-9L16 11" stroke="#fff" stroke-width="2"/></svg></svg>