<svg width="1146" height="1051" viewBox="0 0 1146 1051" fill="none" xmlns="http://www.w3.org/2000/svg">
<g filter="url(#filter0_f_230_1021)">
<path fill-rule="evenodd" clip-rule="evenodd" d="M486.677 649.094C516.43 651.558 336.641 762.428 309.491 750.034C275.613 734.567 344.968 561.912 323.698 531.388C303.165 501.92 322.623 460.775 332.473 426.255C341.271 395.419 357.49 368.541 377.353 343.341C398.103 317.014 417.395 306.188 450.589 301.233C483.955 296.253 508.323 307.193 539.889 319.08C568.2 329.741 608.165 318.244 625.549 342.963C643.288 368.187 843.44 374.222 845 405C846.358 431.788 645.076 486.546 634.069 511.015C623.066 535.477 588.134 535.995 566.795 552.287C542.731 570.66 456.482 646.594 486.677 649.094Z" fill="url(#paint0_linear_230_1021)"/>
</g>
<defs>
<filter id="filter0_f_230_1021" x="0" y="0" width="1145.01" height="1051" filterUnits="userSpaceOnUse" color-interpolation-filters="sRGB">
<feFlood flood-opacity="0" result="BackgroundImageFix"/>
<feBlend mode="normal" in="SourceGraphic" in2="BackgroundImageFix" result="shape"/>
<feGaussianBlur stdDeviation="150" result="effect1_foregroundBlur_230_1021"/>
</filter>
<linearGradient id="paint0_linear_230_1021" x1="694.109" y1="751" x2="467.573" y2="300.628" gradientUnits="userSpaceOnUse">
<stop stop-color="#B2FF0F"/>
<stop offset="1" stop-color="#76FFEF"/>
</linearGradient>
</defs>
</svg>
