<svg width="194" height="1951" viewBox="0 0 194 1951" fill="none" xmlns="http://www.w3.org/2000/svg">
<circle cx="28.5" cy="380.5" r="28.5" fill="url(#paint0_linear_248_1037)"/>
<path d="M165 53V159.617C163.173 177.47 146.169 213.967 92.765 217.141C39.361 220.315 26.6742 260.119 27.0063 279.624V355M165 735V841.617C163.173 859.47 146.169 895.967 92.765 899.141C39.361 902.315 26.6742 942.119 27.0063 961.624V1037M29 1090V1196.62C30.8266 1214.47 47.8309 1250.97 101.235 1254.14C154.639 1257.31 167.326 1297.12 166.994 1316.62V1392M29.0003 405L29.0002 508C30.8269 525.852 45.0958 552.709 98.4999 555.883C151.904 559.056 164.591 602.478 164.259 621.983V685.5M165 1442.5V1849.5C163.833 1872 149.1 1917.2 99.5 1918H53.5M191 28.5C191 42.5833 179.583 54 165.5 54C151.417 54 140 42.5833 140 28.5C140 14.4167 151.417 3 165.5 3C179.583 3 191 14.4167 191 28.5ZM191 710.5C191 724.583 179.583 736 165.5 736C151.417 736 140 724.583 140 710.5C140 696.417 151.417 685 165.5 685C179.583 685 191 696.417 191 710.5ZM3.00002 1065.5C3.00002 1079.58 14.4168 1091 28.5 1091C42.5833 1091 54 1079.58 54 1065.5C54 1051.42 42.5833 1040 28.5 1040C14.4168 1040 3.00002 1051.42 3.00002 1065.5ZM3.00034 380.5C3.00034 394.583 14.4171 406 28.5003 406C42.5836 406 54.0005 394.583 54.0005 380.5C54.0005 366.417 42.5836 355 28.5003 355C14.4171 355 3.00034 366.417 3.00034 380.5ZM191 1417C191 1431.08 179.583 1442.5 165.5 1442.5C151.417 1442.5 140 1431.08 140 1417C140 1402.92 151.417 1391.5 165.5 1391.5C179.583 1391.5 191 1402.92 191 1417ZM54 1922C54 1936.08 42.5833 1947.5 28.5 1947.5C14.4167 1947.5 3 1936.08 3 1922C3 1907.92 14.4167 1896.5 28.5 1896.5C42.5833 1896.5 54 1907.92 54 1922Z" stroke="url(#paint1_linear_248_1037)" stroke-width="6"/>
<circle cx="165.5" cy="28.5" r="28.5" fill="url(#paint2_linear_248_1037)"/>
<defs>
<linearGradient id="paint0_linear_248_1037" x1="9.36428" y1="352" x2="62.0025" y2="364.724" gradientUnits="userSpaceOnUse">
<stop stop-color="#FC84FF"/>
<stop offset="1" stop-color="#54D1FA"/>
</linearGradient>
<linearGradient id="paint1_linear_248_1037" x1="33.8857" y1="3.00079" x2="217.544" y2="7.29296" gradientUnits="userSpaceOnUse">
<stop stop-color="#54D6FF"/>
<stop offset="0.546875" stop-color="#C275FF"/>
<stop offset="1" stop-color="#F36AFF"/>
</linearGradient>
<linearGradient id="paint2_linear_248_1037" x1="146.364" y1="2.31088e-05" x2="199.003" y2="12.7239" gradientUnits="userSpaceOnUse">
<stop stop-color="#FC84FF"/>
<stop offset="1" stop-color="#54D1FA"/>
</linearGradient>
</defs>
</svg>
